<svg width="21" height="18" viewBox="0 0 21 18" fill="none" xmlns="http://www.w3.org/2000/svg">
<path d="M20.8857 9.15144C20.8746 9.39617 20.8003 9.58879 20.7018 9.70974L14.4727 17.4253C14.1861 17.7629 13.7572 17.7493 13.4938 17.457C13.2305 17.1647 13.2177 16.6174 13.4668 16.3087L18.5819 9.96365H0.813452C0.431324 9.96365 0.121389 9.59995 0.121389 9.15156C0.121389 8.70288 0.431337 8.33947 0.813452 8.33947H18.5819L13.4668 1.99446C13.2177 1.68543 13.2394 1.14895 13.4938 0.846126C13.7572 0.532842 14.2233 0.568816 14.4727 0.877851L20.7018 8.59338C20.8662 8.79053 20.8749 8.95797 20.8857 9.15144Z" fill="white"/>
</svg>
