<svg width="15" height="18" viewBox="0 0 15 18" fill="none" xmlns="http://www.w3.org/2000/svg">
<path d="M7.12636 0.162109C7.33031 0.171561 7.49082 0.234845 7.59161 0.318681L14.0212 5.62085C14.3026 5.86474 14.2913 6.22986 14.0477 6.45405C13.8041 6.67821 13.348 6.68911 13.0907 6.47706L7.8032 2.12313L7.8032 17.2475C7.8032 17.5727 7.50012 17.8365 7.12646 17.8365C6.75256 17.8365 6.44972 17.5727 6.44972 17.2475L6.44972 2.12313L1.16222 6.47706C0.904687 6.6891 0.457617 6.67061 0.205267 6.45405C-0.0558026 6.22988 -0.0258239 5.83309 0.231705 5.62085L6.66131 0.318681C6.82561 0.178752 6.96514 0.171357 7.12636 0.162109Z" fill="#6034F4"/>
</svg>
