<svg width="20" height="20" viewBox="0 0 20 20" fill="none" xmlns="http://www.w3.org/2000/svg">
<rect width="20" height="20" rx="4" fill="#18BEBE"/>
<path d="M13.5018 11.1099C14.8211 11.1099 15.8906 10.0404 15.8906 8.72109C15.8906 7.40178 14.8211 6.33228 13.5018 6.33228C12.1825 6.33228 11.113 7.40178 11.113 8.72109C11.113 10.0404 12.1825 11.1099 13.5018 11.1099Z" fill="#FCD95E"/>
<path d="M13.5018 6.00638C13.6438 6.0046 13.6971 5.91583 13.6971 5.80931C13.6971 5.5654 13.3065 5.5654 13.3065 5.80931C13.3065 5.91583 13.3598 6.00638 13.5018 6.00638Z" fill="#FCD95E"/>
<path d="M13.5018 11.3486C13.3598 11.3504 13.3065 11.4391 13.3065 11.5457C13.3065 11.7896 13.6971 11.7896 13.6971 11.5457C13.6971 11.4391 13.6439 11.3486 13.5018 11.3486Z" fill="#FCD95E"/>
<path d="M13.986 6.04446C14.1377 6.07008 14.2072 5.99353 14.2226 5.88937C14.2603 5.63293 13.8439 5.55769 13.8061 5.81413C13.7908 5.9183 13.8346 6.0171 13.986 6.04446Z" fill="#FCD95E"/>
<path d="M13.0176 11.3108C12.8659 11.2851 12.7963 11.3617 12.781 11.4659C12.7433 11.7223 13.1597 11.7975 13.1974 11.5411C13.2128 11.4369 13.169 11.3381 13.0176 11.3108Z" fill="#FCD95E"/>
<path d="M14.4383 6.16487C14.59 6.21339 14.6727 6.14917 14.704 6.04953C14.7841 5.79483 14.3685 5.65684 14.2885 5.91155C14.2572 6.01119 14.2872 6.1147 14.4383 6.16487Z" fill="#FCD95E"/>
<path d="M12.5652 11.1904C12.4136 11.1418 12.3308 11.2061 12.2995 11.3057C12.2195 11.5604 12.6351 11.6984 12.7151 11.4437C12.7464 11.344 12.7163 11.2405 12.5652 11.1904Z" fill="#FCD95E"/>
<path d="M14.8591 6.36519C14.9973 6.43492 15.0898 6.38483 15.1389 6.29267C15.2623 6.06144 14.8847 5.86548 14.7613 6.0967C14.7121 6.18887 14.7218 6.29393 14.8591 6.36519Z" fill="#FCD95E"/>
<path d="M12.1444 10.9898C12.0063 10.9201 11.9138 10.9701 11.8646 11.0623C11.7412 11.2935 12.1189 11.4895 12.2423 11.2583C12.2915 11.1661 12.2818 11.061 12.1444 10.9898Z" fill="#FCD95E"/>
<path d="M15.1961 6.60614C15.3134 6.69414 15.4116 6.65873 15.4771 6.57603C15.6329 6.3793 15.3132 6.13352 15.1575 6.33026C15.092 6.41296 15.0799 6.51677 15.1961 6.60614Z" fill="#FCD95E"/>
<path d="M11.8074 10.749C11.6901 10.661 11.5919 10.6964 11.5264 10.7791C11.3706 10.9758 11.6903 11.2216 11.846 11.0248C11.9115 10.9421 11.9236 10.8383 11.8074 10.749Z" fill="#FCD95E"/>
<path d="M15.4994 6.90937C15.5913 7.01492 15.6927 6.99625 15.7735 6.92582C15.9549 6.76782 15.7058 6.47434 15.5245 6.63233C15.4436 6.70276 15.4089 6.80265 15.4994 6.90937Z" fill="#FCD95E"/>
<path d="M11.5042 10.4459C11.4123 10.3403 11.3109 10.359 11.2301 10.4294C11.0487 10.5874 11.2978 10.8809 11.4791 10.7229C11.56 10.6525 11.5947 10.5526 11.5042 10.4459Z" fill="#FCD95E"/>
<path d="M15.7685 7.28765C15.8334 7.40843 15.9355 7.40799 16.0295 7.35269C16.2329 7.2331 16.0587 6.89842 15.8554 7.01801C15.7613 7.07331 15.7052 7.16595 15.7685 7.28765Z" fill="#FCD95E"/>
<path d="M11.235 10.0677C11.1701 9.94692 11.068 9.94736 10.974 10.0027C10.7707 10.1222 10.9448 10.4569 11.1482 10.3373C11.2422 10.282 11.2984 10.1894 11.235 10.0677Z" fill="#FCD95E"/>
<path d="M15.9716 7.70196C16.0137 7.83208 16.1143 7.8483 16.2167 7.80891C16.4374 7.7241 16.3263 7.36445 16.1056 7.44926C16.0032 7.48865 15.9312 7.57118 15.9716 7.70196Z" fill="#FCD95E"/>
<path d="M11.032 9.65327C10.9899 9.52314 10.8893 9.50692 10.7868 9.54632C10.5662 9.63113 10.6773 9.99077 10.8979 9.90596C11.0004 9.86657 11.0724 9.78405 11.032 9.65327Z" fill="#FCD95E"/>
<path d="M16.111 8.15561C16.134 8.29037 16.2307 8.32252 16.337 8.3003C16.5694 8.25176 16.5108 7.88016 16.2785 7.92869C16.1721 7.95092 16.0897 8.02048 16.111 8.15561Z" fill="#FCD95E"/>
<path d="M10.8926 9.19961C10.8695 9.06485 10.7729 9.0327 10.6665 9.05493C10.4342 9.10346 10.4928 9.47507 10.7251 9.42653C10.8314 9.40431 10.9139 9.33474 10.8926 9.19961Z" fill="#FCD95E"/>
<path d="M16.1693 8.57347C16.1757 8.71299 16.2663 8.76121 16.3731 8.75626C16.6138 8.74511 16.601 8.36121 16.3604 8.37237C16.2536 8.37732 16.1646 8.43387 16.1693 8.57347Z" fill="#FCD95E"/>
<path d="M10.8343 8.78176C10.8279 8.64224 10.7372 8.59401 10.6305 8.59896C10.3898 8.61012 10.4025 8.99401 10.6432 8.98286C10.7499 8.97791 10.8389 8.92135 10.8343 8.78176Z" fill="#FCD95E"/>
<path d="M16.1446 9.01827C16.1321 9.15506 16.2158 9.21881 16.3226 9.23387C16.5583 9.2671 16.5975 8.89162 16.3618 8.8584C16.255 8.84334 16.1589 8.88174 16.1446 9.01827Z" fill="#FCD95E"/>
<path d="M10.859 8.33695C10.8715 8.20017 10.7878 8.13641 10.681 8.12135C10.4453 8.08813 10.4061 8.4636 10.6418 8.49682C10.7486 8.51189 10.8447 8.47349 10.859 8.33695Z" fill="#FCD95E"/>
<path d="M16.0345 9.47954C16.0036 9.61296 16.0785 9.69016 16.183 9.72302C16.4089 9.79405 16.4986 9.42866 16.2726 9.35763C16.1681 9.32477 16.0671 9.34667 16.0345 9.47954Z" fill="#FCD95E"/>
<path d="M10.9691 7.87556C11 7.74215 10.9251 7.66494 10.8206 7.63208C10.5947 7.56106 10.505 7.92645 10.731 7.99747C10.8355 8.03033 10.9365 8.00843 10.9691 7.87556Z" fill="#FCD95E"/>
<path d="M15.8565 9.90786C15.8044 10.0347 15.8659 10.1228 15.9639 10.1719C16.1747 10.2776 16.3223 9.93103 16.1115 9.82539C16.0135 9.77631 15.9101 9.78184 15.8565 9.90786Z" fill="#FCD95E"/>
<path d="M11.1471 7.44725C11.1991 7.32042 11.1376 7.23226 11.0397 7.18318C10.8289 7.07754 10.6813 7.42407 10.8921 7.52971C10.99 7.57879 11.0934 7.57326 11.1471 7.44725Z" fill="#FCD95E"/>
<path d="M15.6115 10.3045C15.5332 10.4187 15.5754 10.515 15.6618 10.5798C15.8523 10.7223 16.0714 10.4111 15.881 10.2686C15.7945 10.2039 15.6911 10.1913 15.6115 10.3045Z" fill="#FCD95E"/>
<path d="M11.3921 7.05065C11.4704 6.93643 11.4282 6.84006 11.3417 6.77534C11.1513 6.63281 10.9322 6.94396 11.1226 7.08649C11.209 7.15121 11.3124 7.16379 11.3921 7.05065Z" fill="#FCD95E"/>
<path d="M15.3395 10.618C15.2359 10.7168 15.2572 10.8179 15.3299 10.8953C15.4981 11.0744 15.7864 10.8063 15.6182 10.6272C15.5454 10.5498 15.4443 10.5205 15.3395 10.618Z" fill="#FCD95E"/>
<path d="M11.6641 6.73719C11.7677 6.63841 11.7464 6.53733 11.6736 6.45991C11.5054 6.28085 11.2172 6.54896 11.3854 6.72802C11.4581 6.80544 11.5593 6.83469 11.6641 6.73719Z" fill="#FCD95E"/>
<path d="M16.0345 9.47954C16.0036 9.61296 16.0785 9.69016 16.183 9.72302C16.4089 9.79405 16.4986 9.42866 16.2726 9.35763C16.1681 9.32477 16.0671 9.34667 16.0345 9.47954Z" fill="#FCD95E"/>
<path d="M10.9691 7.87556C11 7.74215 10.9251 7.66494 10.8206 7.63208C10.5947 7.56106 10.505 7.92645 10.731 7.99747C10.8355 8.03033 10.9365 8.00843 10.9691 7.87556Z" fill="#FCD95E"/>
<path d="M15.8565 9.90786C15.8044 10.0347 15.8659 10.1228 15.9639 10.1719C16.1747 10.2776 16.3223 9.93103 16.1115 9.82539C16.0135 9.77631 15.9101 9.78184 15.8565 9.90786Z" fill="#FCD95E"/>
<path d="M11.1471 7.44725C11.1991 7.32042 11.1376 7.23226 11.0397 7.18318C10.8289 7.07754 10.6813 7.42407 10.8921 7.52971C10.99 7.57879 11.0934 7.57326 11.1471 7.44725Z" fill="#FCD95E"/>
<path d="M15.6115 10.3045C15.5332 10.4187 15.5754 10.515 15.6618 10.5798C15.8523 10.7223 16.0714 10.4111 15.881 10.2686C15.7945 10.2039 15.6911 10.1913 15.6115 10.3045Z" fill="#FCD95E"/>
<path d="M11.3921 7.05065C11.4704 6.93643 11.4282 6.84006 11.3417 6.77534C11.1513 6.63281 10.9322 6.94396 11.1226 7.08649C11.209 7.15121 11.3124 7.16379 11.3921 7.05065Z" fill="#FCD95E"/>
<path d="M15.3395 10.618C15.2359 10.7168 15.2572 10.8179 15.3299 10.8953C15.4981 11.0744 15.7864 10.8063 15.6182 10.6272C15.5454 10.5498 15.4443 10.5205 15.3395 10.618Z" fill="#FCD95E"/>
<path d="M11.6641 6.7372C11.7677 6.63841 11.7464 6.53733 11.6736 6.45991C11.5054 6.28085 11.2172 6.54896 11.3854 6.72803C11.4581 6.80545 11.5593 6.83469 11.6641 6.7372Z" fill="#FCD95E"/>
<path d="M14.9308 10.9455C14.7981 11.022 14.7918 11.1255 14.8443 11.2159C14.9749 11.4408 15.3422 11.2346 15.2116 11.0097C15.1591 10.9192 15.0643 10.8705 14.9308 10.9455Z" fill="#FCD95E"/>
<path d="M12.0728 6.40976C12.2055 6.33326 12.2118 6.22975 12.1592 6.1393C12.0286 5.91438 11.6613 6.12061 11.7919 6.34553C11.8445 6.43599 11.9392 6.48475 12.0728 6.40976Z" fill="#FCD95E"/>
<path d="M14.5187 11.1593C14.3697 11.2151 14.3423 11.3175 14.3768 11.416C14.465 11.668 14.8764 11.5191 14.7882 11.2671C14.7537 11.1686 14.6683 11.1052 14.5187 11.1593Z" fill="#FCD95E"/>
<path d="M12.4848 6.19592C12.6338 6.14014 12.6612 6.03775 12.6267 5.93924C12.5385 5.68721 12.1272 5.8361 12.2154 6.08813C12.2499 6.18664 12.3353 6.25006 12.4848 6.19592Z" fill="#FCD95E"/>
<path d="M14.1094 11.2864C13.9572 11.3219 13.9161 11.4205 13.9356 11.5237C13.9841 11.7816 14.4036 11.6888 14.3551 11.431C14.3357 11.3278 14.262 11.2527 14.1094 11.2864Z" fill="#FCD95E"/>
<path d="M12.8942 6.06867C13.0464 6.03321 13.0874 5.93455 13.068 5.83135C13.0195 5.57349 12.5999 5.66628 12.6485 5.92414C12.6679 6.02734 12.7416 6.10241 12.8942 6.06867Z" fill="#FCD95E"/>
<path d="M-nan -nanL13.0756 13.8959C13.0168 13.8991 12.9595 13.9064 12.9033 13.9227C12.8934 13.9256 12.8834 13.9279 12.8733 13.9295C12.7953 13.942 12.7202 13.9683 12.6424 13.9811L12.6092 13.9864L12.6 13.9873C12.5754 13.9897 12.5595 14.0132 12.5595 14.0379C12.5595 14.0539 12.5577 14.0693 12.5536 14.0823C12.5501 14.0947 12.5388 14.1101 12.5299 14.1196C12.5181 14.1326 12.5057 14.1438 12.4909 14.1509C12.4767 14.158 12.4607 14.161 12.4447 14.1622C12.4287 14.1628 12.4122 14.1622 12.3968 14.1563C12.3962 14.1561 12.3956 14.1559 12.395 14.1556C12.3652 14.145 12.3341 14.1344 12.3027 14.1379C12.2717 14.1412 12.2405 14.1346 12.2114 14.1234C12.2097 14.1227 12.2079 14.122 12.2062 14.1214C12.1766 14.1091 12.1425 14.107 12.1149 14.1233C12.0684 14.1508 12.0232 14.1816 11.9955 14.2285C11.9748 14.2569 11.9707 14.2894 11.9659 14.3231C11.963 14.3646 11.9736 14.4084 11.9914 14.4468C12.012 14.4824 12.0387 14.3838 12.0753 14.3651C12.0874 14.3589 12.1 14.3534 12.1127 14.3488C12.1317 14.3419 12.1631 14.3172 12.169 14.3365C12.1696 14.3388 12.1694 14.3419 12.1684 14.3456C12.1641 14.3622 12.1545 14.3809 12.1505 14.3975C12.144 14.4241 12.1745 14.4058 12.2002 14.3965C12.31 14.3564 12.4288 14.3469 12.5447 14.338C12.7329 14.3184 12.9217 14.3143 13.1105 14.3119C13.288 14.3143 13.4656 14.3166 13.6431 14.3231C13.7277 14.3255 13.813 14.3444 13.8964 14.3302C13.9289 14.3216 13.9299 14.2967 13.8967 14.2914C13.8764 14.2881 13.8557 14.2866 13.8355 14.2841H13.4969C13.4028 14.2746 13.3046 14.2734 13.2158 14.2379C13.1699 14.2196 13.1237 14.2411 13.0749 14.249C13.064 14.2507 13.0532 14.252 13.0424 14.2527C13.0098 14.2552 12.9771 14.2528 12.9452 14.2466C12.9011 14.2381 12.8866 14.1865 12.916 14.1526C12.9321 14.134 12.9486 14.1157 12.9649 14.0974C12.9793 14.0813 12.9703 14.0558 12.9492 14.0515C12.9257 14.0467 12.9197 14.016 12.9388 14.0017C12.9848 13.9672 13.0294 13.9307 13.0756 13.8959L-nan -nanZ" fill="#FCD95E"/>
<path d="M15.8405 14.5092C15.8405 14.5092 15.8405 14.5092 15.8405 14.5092C15.739 14.5701 15.6566 14.4978 15.5735 14.4444C15.5327 14.4182 15.4788 14.4215 15.4545 14.4636C15.4201 14.5234 15.4018 14.6084 15.3504 14.6557C15.2783 14.7378 15.0641 14.6904 14.9767 14.756C14.9518 14.7748 14.9236 14.7875 14.8903 14.7904C14.8617 14.7928 14.8346 14.7793 14.8148 14.7585C14.7685 14.71 14.729 14.6533 14.6908 14.6787C14.6479 14.7072 14.637 14.7667 14.5992 14.8017C14.5838 14.816 14.5668 14.8291 14.5491 14.8393C14.4519 14.8957 14.4259 14.6315 14.3231 14.6769C14.3085 14.6834 14.293 14.7062 14.277 14.7527C14.2508 14.8316 14.1838 14.8959 14.1061 14.9101C14.0381 14.9225 13.9774 14.8581 13.9895 14.79C14.0073 14.6899 13.9301 14.6984 13.8643 14.7758C13.8113 14.8382 13.7584 14.9025 13.6858 14.9239C13.6415 14.937 13.5935 14.9147 13.5922 14.8686C13.589 14.7541 13.5247 14.7409 13.4462 14.8242C13.4192 14.8528 13.3902 14.8783 13.3585 14.8972C13.2992 14.9324 13.2227 14.8911 13.2251 14.8223C13.2283 14.7275 13.1661 14.7156 13.0879 14.7693C13.0745 14.7785 13.061 14.7876 13.0474 14.7965C12.8841 14.9035 12.7602 14.7146 12.9254 14.6104C13.0515 14.531 13.2122 14.4944 13.3575 14.4821C13.7717 14.4312 14.206 14.5147 14.6095 14.3973C14.6705 14.3795 14.7286 14.3528 14.784 14.3219C14.8521 14.284 14.9184 14.2348 14.8774 14.1676C14.8546 14.1344 14.8769 14.1211 14.9111 14.1095C15.0072 14.077 15.019 13.9431 15.1196 13.9298C15.1492 13.9259 15.1834 13.9256 15.2174 13.922C15.5019 13.9098 15.7841 13.9449 16.0667 13.9749C16.3229 14.0021 16.5111 14.2807 16.2558 14.3155C16.1678 14.3276 16.0712 14.3009 16.0022 14.2449C15.9532 14.205 15.9153 14.1698 15.9199 14.2334C15.9211 14.2492 15.921 14.2652 15.9187 14.2808C15.9064 14.3613 15.9105 14.458 15.8405 14.5092C15.8405 14.5092 15.8405 14.5092 15.8405 14.5092ZM12.1583 14.0787C12.2585 14.1704 12.3287 14.0614 12.4224 14.0216C12.7365 13.9136 13.0105 13.7248 13.2807 13.5362C13.4444 13.4007 13.5863 13.225 13.8062 13.1811C14.122 13.0856 14.4525 13.0689 14.7767 13.019C15.0022 12.9843 15.1877 12.8383 15.3632 12.6927C15.6594 12.4468 16.0382 12.307 16.3809 12.1294C16.4422 12.0977 16.5116 12.0766 16.5611 12.0287C16.5783 12.0121 16.5925 11.993 16.6048 11.9721C16.6437 11.9061 16.671 11.8334 16.7152 11.7708C16.8856 11.5292 17.1047 11.3169 17.3585 11.1664C17.4541 11.1142 17.5627 11.0776 17.6723 11.0723C17.7518 11.0685 17.8082 11.1431 17.7842 11.2191C17.767 11.2737 17.7421 11.3257 17.7118 11.3748C17.6679 11.4462 17.709 11.517 17.7908 11.4987C17.8332 11.4893 17.873 11.522 17.8667 11.565C17.8577 11.6256 17.8227 11.6762 17.7784 11.7222C17.6993 11.8041 17.8673 11.9197 17.7694 11.978C17.7626 11.982 17.7515 11.988 17.745 11.9924C17.6497 12.0574 17.5468 12.1108 17.4484 12.1707C17.3707 12.2181 17.3852 12.3631 17.3004 12.396C17.2918 12.3994 17.2742 12.4071 17.2662 12.4117C17.2541 12.4189 17.2407 12.4254 17.2266 12.4317C17.0932 12.4912 17.0772 12.6696 16.9396 12.7185C16.8789 12.7326 16.8166 12.7534 16.7967 12.7832C16.7588 12.84 16.8264 12.926 16.7625 12.9503C16.6841 12.9802 16.637 13.0607 16.6146 13.1416C16.607 13.1694 16.5877 13.193 16.5494 13.2092C16.5404 13.213 16.5316 13.2174 16.5239 13.2233C16.4348 13.2897 16.4898 13.5021 16.5919 13.4583C16.6724 13.4238 16.7506 13.3833 16.8257 13.3366C16.8355 13.3305 16.844 13.3226 16.8531 13.3154C16.9226 13.2608 17.1375 13.2034 17.0031 13.1579C16.861 13.0987 16.8683 12.9893 17.02 12.9633C17.0893 12.9515 17.1603 12.9455 17.2306 12.9372C17.3673 12.9211 17.3855 12.8457 17.2488 12.83C17.23 12.8279 17.2144 12.8253 17.1956 12.823C17.0827 12.8094 17.0893 12.7786 17.2002 12.7635C17.2182 12.7611 17.2362 12.758 17.2539 12.7536C17.3779 12.7234 17.511 12.7074 17.6304 12.6618C17.7022 12.6343 17.693 12.5526 17.6161 12.5503C17.5232 12.5475 17.5126 12.4695 17.6024 12.4454C17.7538 12.4049 17.9071 12.3686 18.0372 12.2821C18.0537 12.2711 18.0699 12.2585 18.0793 12.2411C18.1196 12.1662 17.9362 12.1936 17.8793 12.1959C17.8343 12.2038 17.7978 12.2012 17.776 12.1922C17.6868 12.1556 17.8768 12.0746 17.9581 12.0228C18.1787 11.8823 18.4232 11.7637 18.569 11.5418C18.6099 11.4829 18.6654 11.3053 18.5347 11.3692C18.308 11.4446 18.2757 11.3558 18.4501 11.1924C18.6318 11.0223 18.8003 10.8384 18.9446 10.6365C19.0047 10.5525 19.0397 10.4137 18.9367 10.4065C18.8966 10.4036 18.8531 10.4167 18.8259 10.4456C18.8135 10.4588 18.8035 10.4741 18.7906 10.4867C18.6552 10.619 18.5545 10.5108 18.6587 10.3528C18.7055 10.2818 18.7509 10.21 18.7949 10.1376C18.8193 10.082 18.8651 10.0206 18.8939 9.95772C18.9442 9.848 18.8403 9.71213 18.7285 9.75759C18.677 9.77852 18.6311 9.82106 18.6014 9.87047C18.5959 9.87969 18.5903 9.88877 18.5838 9.89734C18.4593 10.062 18.3255 9.97398 18.3815 9.77532C18.4248 9.6216 18.4518 9.46405 18.4537 9.30228C18.453 9.20396 18.4333 9.05916 18.2998 9.07752C18.2028 9.0949 18.2158 9.22926 18.1851 9.3133C18.1797 9.32818 18.1731 9.34269 18.1688 9.35793C18.1517 9.41756 18.1362 9.47802 18.1209 9.53873C18.0735 9.72746 17.9418 9.68104 17.8996 9.4911C17.8906 9.45252 17.8644 9.43174 17.8339 9.42524C17.7006 9.39686 17.6916 9.61074 17.6578 9.74282C17.381 10.8275 16.6286 11.7675 15.6619 12.3248C15.192 12.5907 14.6672 12.762 14.1333 12.8397C14.0419 12.8597 13.9458 12.8595 13.8526 12.8694C13.7477 12.8804 13.6529 12.9328 13.5766 13.0056C13.3283 13.2425 13.1376 13.5542 12.8152 13.6902C12.7673 13.7104 12.7188 13.7296 12.6703 13.7487C12.5178 13.8089 12.344 13.842 12.2232 13.9503C12.1859 13.9838 12.1573 14.0286 12.1583 14.0787" fill="#FCD95E"/>
<path d="M13.4188 12.8925C13.3176 13.0763 13.1013 13.1129 12.8974 13.0631C12.7192 13.0195 12.5253 13.0184 12.3463 13.0099C12.0946 12.9965 11.8209 12.9732 11.6262 12.7937C11.4569 12.6551 11.3133 12.4822 11.1394 12.3496C11.0665 12.2939 10.9799 12.2608 10.8925 12.2333C10.7288 12.1817 10.57 12.1136 10.4376 12.0008C10.0786 11.7081 9.87303 11.274 9.52224 10.9722C9.50248 10.9528 9.48168 10.9346 9.46023 10.9172C9.363 10.8385 9.26855 10.9759 9.17549 10.8922C9.17041 10.8886 9.16452 10.8853 9.15803 10.8824C9.05678 10.8373 9.04016 10.9516 9.09949 11.0452C9.14342 11.1145 9.18134 11.1879 9.20482 11.2652C9.22469 11.3306 9.16061 11.3861 9.09226 11.3842C9.02566 11.3823 9.01736 11.4413 9.05872 11.4935C9.10991 11.5582 9.16662 11.6187 9.22778 11.6741C9.27165 11.7139 9.23292 11.7812 9.17439 11.79C9.13608 11.7958 9.14995 11.8284 9.18034 11.8524C9.26615 11.9203 9.35668 11.9849 9.45689 12.0269C9.54485 12.0637 9.57781 12.1183 9.59053 12.2128C9.59281 12.2297 9.60148 12.2447 9.62216 12.2559C9.66735 12.2744 9.81646 12.3053 9.71376 12.3567C9.66521 12.3894 9.66251 12.4521 9.69498 12.4871C9.72688 12.5216 9.78587 12.5242 9.83128 12.5361C9.92096 12.5595 9.89707 12.6189 9.83874 12.6909C9.82069 12.7132 9.82184 12.735 9.86851 12.7548C9.87645 12.7582 9.88439 12.7616 9.89198 12.7657C9.96224 12.8036 10.0378 12.8337 10.1156 12.8533C10.1762 12.8686 10.1958 12.9432 10.1418 12.9747C10.1001 12.9991 10.1029 13.0565 10.1454 13.0796C10.4511 13.2454 10.7835 13.3608 11.1124 13.4723C11.2561 13.5203 11.4014 13.5651 11.5502 13.5932C11.1176 13.5683 10.6994 13.4402 10.3054 13.2649C10.1405 13.1925 9.97463 13.1222 9.80668 13.0571C9.76058 13.0393 9.75862 12.98 9.80606 12.9661C9.85957 12.9504 9.85542 12.8888 9.80044 12.8795C9.70454 12.8632 9.60856 12.8447 9.51886 12.8112C9.44492 12.7836 9.44078 12.7114 9.51757 12.6932C9.53243 12.6896 9.54687 12.686 9.55984 12.6817C9.57051 12.6782 9.58116 12.6745 9.59205 12.6717C9.66671 12.6526 9.71413 12.6313 9.66262 12.6189C9.62038 12.6087 9.57668 12.6046 9.5339 12.597C9.46285 12.5844 9.38897 12.5793 9.3183 12.5654C9.20668 12.5433 9.20372 12.4674 9.31593 12.4486C9.32258 12.4475 9.32887 12.4462 9.33466 12.4446C9.34369 12.4422 9.3524 12.4394 9.36162 12.4379C9.45409 12.4223 9.44722 12.3343 9.35453 12.3201C9.18468 12.2941 9.00636 12.2884 8.87628 12.1746C8.85089 12.1524 8.82028 12.1067 8.85342 12.1005C8.88731 12.0942 8.95716 12.112 8.99844 12.1126C9.01183 12.1128 9.0249 12.1107 9.03829 12.1111C9.17374 12.1153 9.18823 12.0126 9.06523 11.9558C8.84835 11.8554 8.63853 11.7399 8.46938 11.5712C8.44989 11.5517 8.43274 11.5301 8.41795 11.5069C8.41279 11.4987 8.40742 11.4901 8.40222 11.4811C8.35608 11.4019 8.44464 11.365 8.52651 11.4063C8.61203 11.4494 8.69162 11.5125 8.77844 11.5486C8.88419 11.5926 8.92531 11.5261 8.83358 11.4576C8.80392 11.4354 8.77675 11.4055 8.74878 11.3812C8.4963 11.1621 8.25212 10.9269 8.05657 10.6553C7.98964 10.5624 7.95467 10.408 8.06919 10.4096C8.15222 10.4108 8.20731 10.496 8.26569 10.5551C8.47008 10.7618 8.66695 10.9834 8.92602 11.1201C8.98503 11.1487 8.95882 11.1262 8.92054 11.0939C8.86601 11.0477 8.81993 10.9922 8.77384 10.9376C8.52573 10.6438 8.29263 10.3335 8.11752 9.99084C8.08326 9.92334 8.02648 9.80112 8.12899 9.76519C8.23148 9.71384 8.33318 9.78379 8.38515 9.87183C8.51771 10.039 8.65528 9.94963 8.6004 9.74343C8.56296 9.60274 8.53985 9.4587 8.53813 9.31075C8.54165 9.24603 8.54562 9.15808 8.59066 9.1124C8.63359 9.06886 8.72236 9.06453 8.75185 9.11808C8.77088 9.15264 8.77534 9.20448 8.78863 9.24369C8.79365 9.25849 8.80003 9.27284 8.80436 9.28787C8.8302 9.37753 8.85255 9.46894 8.87507 9.56045C8.91878 9.73806 9.05564 9.69292 9.08631 9.5126C9.1038 9.36615 9.2868 9.52417 9.31694 9.66854C9.33113 9.73649 9.34525 9.80512 9.36752 9.86905C9.63489 10.7837 10.2352 11.5882 11.0176 12.1281C11.6619 12.57 12.4266 12.8338 13.207 12.8798C13.2775 12.8859 13.3483 12.8881 13.4189 12.8924" fill="#FCD95E"/>
<path d="M12.4281 14.1052C12.4513 14.1052 12.4702 14.0864 12.4702 14.0631C12.4702 14.0399 12.4513 14.0211 12.4281 14.0211C12.4049 14.0211 12.3861 14.0399 12.3861 14.0631C12.3861 14.0864 12.4049 14.1052 12.4281 14.1052Z" fill="#FCD95E"/>
<path d="M12.4246 14.0736C12.434 14.0736 12.4417 14.0659 12.4417 14.0564C12.4417 14.047 12.434 14.0393 12.4246 14.0393C12.4151 14.0393 12.4074 14.047 12.4074 14.0564C12.4074 14.0659 12.4151 14.0736 12.4246 14.0736Z" fill="#FCD95E" stroke="#00AFCA" stroke-width="0.0067643"/>
<path d="M2.96648 2.30682C2.96642 2.30684 2.96642 2.30689 2.96638 2.30685C2.96475 2.30548 2.79163 2.16057 2.73265 2.23378C2.63733 2.35207 3.02569 2.94128 3.02569 3.14877C3.02569 3.48936 2.79843 3.58197 2.51781 3.63061C2.38639 3.6534 2.19734 3.63773 2.09512 3.62618C2.06229 3.62248 2.04944 3.58037 2.07421 3.55851C2.10745 3.52917 2.12191 3.44659 2.09317 3.41283C2.03727 3.34714 1.99687 3.25704 1.99687 3.14205C1.99687 2.84905 2.11748 2.72828 2.11748 2.39796C2.11748 2.38594 2.11684 2.3737 2.11563 2.36132C2.09949 2.19617 2.22266 2.05481 2.28512 2.20856C2.3095 2.26857 2.31674 2.33417 2.30466 2.3973C2.29932 2.42517 2.3164 2.45526 2.344 2.44869C2.37513 2.44128 2.41263 2.45163 2.40534 2.48278C2.40054 2.5033 2.39151 2.52405 2.37994 2.54428C2.36625 2.56825 2.37437 2.60001 2.40174 2.59643C2.40766 2.59566 2.41391 2.59449 2.42069 2.59306C2.44079 2.58881 2.46062 2.59675 2.4549 2.61648C2.44532 2.64948 2.48096 2.74358 2.51428 2.75198C2.64822 2.78573 2.72575 2.90817 2.72575 3.03473C2.72575 3.16633 2.63353 3.26065 2.54339 3.26065C2.52717 3.26065 2.5067 3.25692 2.48759 3.25051C2.46552 3.24311 2.43855 3.25014 2.43818 3.27341C2.4377 3.30482 2.40797 3.33759 2.38733 3.3139C2.37935 3.30475 2.37366 3.29403 2.37079 3.28152C2.36292 3.2472 2.3432 3.21104 2.31104 3.1967C2.30493 3.19398 2.29909 3.19092 2.29353 3.18753C2.2714 3.17401 2.27074 3.14294 2.2922 3.12837C2.29574 3.12597 2.29939 3.12373 2.30314 3.12167C2.33427 3.10452 2.35732 3.05876 2.36851 3.02504C2.38161 2.98554 2.42867 3.02101 2.44188 3.06047C2.45014 3.08516 2.46764 3.10422 2.50197 3.10422C2.54579 3.10422 2.58571 3.08995 2.58571 3.02536C2.58571 2.96914 2.53656 2.89125 2.42292 2.8962C2.3093 2.90116 2.21718 2.97455 2.21718 3.15594C2.21718 3.32327 2.35215 3.4065 2.53001 3.41187C2.69038 3.41683 2.81143 3.32995 2.81143 3.16449C2.81143 2.9443 2.49355 2.44237 2.49355 2.24616C2.49355 2.09892 2.62594 2.01674 2.75549 2.01674C2.84065 2.01674 2.91906 2.05949 2.97567 2.10164C3.03215 2.14369 3.0335 2.22282 2.98959 2.27786L2.96654 2.30677C2.96652 2.30679 2.9665 2.30681 2.96648 2.30682Z" fill="#FCD95E"/>
<path d="M3.00307 6.28696C3.00306 6.28696 3.00306 6.28696 3.00306 6.28696C3.00305 6.65498 2.67265 6.84412 2.41302 6.84412C2.06323 6.84412 1.87698 6.63498 1.87698 6.36121C1.87698 6.20612 1.90537 6.10878 1.97681 5.96043C1.97692 5.96022 1.97688 5.96029 1.97698 5.96007C1.98035 5.95308 2.55463 4.75879 2.77861 4.29605C2.80663 4.23817 2.81567 4.17226 2.81567 4.07567C2.81567 3.92648 2.67097 3.80454 2.51924 3.8008C2.38092 3.79735 2.23023 3.92975 2.23023 4.08063C2.23023 4.26387 2.32529 4.34558 2.4229 4.34558C2.54302 4.34558 2.59088 4.29619 2.59088 4.21186C2.59088 4.15309 2.5625 4.12767 2.52171 4.12767C2.48289 4.12767 2.4628 4.14736 2.45284 4.1719C2.43594 4.21356 2.39333 4.24909 2.37735 4.20706C2.37662 4.20512 2.37594 4.20314 2.37533 4.20113C2.36544 4.16833 2.34738 4.13117 2.31851 4.11272C2.29358 4.0968 2.29388 4.06139 2.31916 4.04605C2.34776 4.02869 2.36656 3.99463 2.37157 3.96155C2.37493 3.9393 2.38616 3.92251 2.40409 3.91007C2.42303 3.89693 2.44372 3.92239 2.44373 3.94545C2.44373 3.96189 2.46015 3.97012 2.47642 3.96784C2.58428 3.95271 2.72427 4.0092 2.72427 4.18214C2.72427 4.32773 2.64609 4.45554 2.4973 4.48759C2.47304 4.49282 2.43067 4.57842 2.43669 4.60249C2.44057 4.618 2.42496 4.63123 2.40944 4.62742C2.40595 4.62656 2.40252 4.62578 2.39916 4.62506C2.37758 4.62047 2.36389 4.64255 2.37515 4.66153C2.38565 4.67922 2.39567 4.69822 2.4031 4.72103C2.41646 4.76204 2.37667 4.78469 2.3352 4.77282C2.30166 4.76321 2.28387 4.80304 2.29229 4.83689C2.30632 4.89332 2.30293 4.9532 2.2829 5.00997C2.23658 5.14123 2.11904 5.01468 2.11904 4.87548C2.11904 4.44888 2.00048 4.37719 2.00048 4.08061C2.00048 3.9573 2.06345 3.82423 2.18827 3.7332C2.18927 3.73247 2.19068 3.73318 2.19068 3.73442C2.19068 3.73542 2.18972 3.73615 2.18876 3.73588C2.15053 3.72545 2.11866 3.71106 2.09241 3.69309C2.04847 3.66302 2.07187 3.6033 2.1244 3.59453C2.27809 3.56886 2.45802 3.57189 2.58427 3.60457C2.6221 3.61435 2.6603 3.62335 2.69798 3.63366C2.83826 3.67205 2.93521 3.78147 2.96633 3.8404C3.00155 3.90704 3.06998 4.1482 2.96633 4.36533C2.85285 4.60296 2.31794 5.7372 2.15116 6.09375C2.11579 6.16937 2.09433 6.24958 2.09433 6.33642C2.09433 6.55484 2.29441 6.6311 2.40807 6.6311C2.54393 6.6311 2.68226 6.52761 2.68226 6.39834C2.68226 6.31644 2.63778 6.26711 2.57356 6.26711C2.5207 6.26711 2.48714 6.28259 2.4671 6.30625C2.42351 6.35774 2.35031 6.41562 2.32903 6.35159C2.31532 6.31033 2.2868 6.27555 2.24835 6.25525C2.24052 6.25111 2.23276 6.24644 2.22508 6.2412C2.1903 6.21747 2.18708 6.16794 2.221 6.143C2.26583 6.11004 2.3073 6.04096 2.33365 5.99196C2.36735 5.92931 2.41735 6.01036 2.46455 6.0636C2.48369 6.08519 2.51752 6.09873 2.57356 6.09873C2.66516 6.09873 2.83562 5.99947 2.83786 5.9079C2.84034 5.80694 2.84247 5.71699 2.84278 5.7041C2.8428 5.70294 2.84284 5.70189 2.84288 5.70073C2.84652 5.59254 2.73516 5.56737 2.62489 5.57961C2.57834 5.58477 2.53528 5.54161 2.55862 5.501C2.58658 5.45237 2.62391 5.41539 2.67459 5.39187C2.70988 5.3755 2.78106 5.22635 2.78106 5.18745C2.78111 5.01162 2.972 5.07194 2.97649 5.24772L3.00308 6.28695C3.00308 6.28696 3.00307 6.28696 3.00307 6.28696Z" fill="#FCD95E"/>
<path d="M2.95613 2.30682C2.95618 2.30684 2.95618 2.30689 2.95623 2.30685C2.95785 2.30548 3.13098 2.16057 3.18996 2.23378C3.28528 2.35207 2.89692 2.94128 2.89692 3.14877C2.89692 3.48936 3.12418 3.58197 3.4048 3.63061C3.53622 3.6534 3.72526 3.63773 3.82749 3.62618C3.86032 3.62248 3.87317 3.58037 3.8484 3.55851C3.81516 3.52917 3.8007 3.44659 3.82944 3.41283C3.88534 3.34714 3.92573 3.25704 3.92573 3.14205C3.92573 2.84905 3.80512 2.72828 3.80512 2.39796C3.80512 2.38594 3.80577 2.3737 3.80698 2.36132C3.82312 2.19617 3.69994 2.05481 3.63749 2.20856C3.61311 2.26857 3.60587 2.33417 3.61795 2.3973C3.62329 2.42517 3.60621 2.45526 3.57861 2.44869C3.54748 2.44128 3.50997 2.45163 3.51727 2.48278C3.52207 2.5033 3.5311 2.52405 3.54266 2.54428C3.55636 2.56825 3.54824 2.60001 3.52087 2.59643C3.51494 2.59566 3.50869 2.59449 3.50192 2.59306C3.48182 2.58881 3.46199 2.59675 3.46771 2.61648C3.47728 2.64948 3.44164 2.74358 3.40833 2.75198C3.27438 2.78573 3.19686 2.90817 3.19686 3.03473C3.19686 3.16633 3.28907 3.26065 3.37922 3.26065C3.39544 3.26065 3.4159 3.25692 3.43502 3.25051C3.45709 3.24311 3.48406 3.25014 3.48442 3.27341C3.48491 3.30482 3.51464 3.33759 3.53528 3.3139C3.54326 3.30475 3.54895 3.29403 3.55182 3.28152C3.55969 3.2472 3.5794 3.21104 3.61157 3.1967C3.61768 3.19398 3.62352 3.19092 3.62908 3.18753C3.65121 3.17401 3.65187 3.14294 3.6304 3.12837C3.62686 3.12597 3.62321 3.12373 3.61946 3.12167C3.58834 3.10452 3.56528 3.05876 3.5541 3.02504C3.541 2.98554 3.49394 3.02101 3.48073 3.06047C3.47246 3.08516 3.45496 3.10422 3.42063 3.10422C3.37682 3.10422 3.3369 3.08995 3.3369 3.02536C3.3369 2.96914 3.38605 2.89125 3.49968 2.8962C3.61331 2.90116 3.70543 2.97455 3.70543 3.15594C3.70543 3.32327 3.57046 3.4065 3.3926 3.41187C3.23223 3.41683 3.11118 3.32995 3.11118 3.16449C3.11118 2.9443 3.42906 2.44237 3.42906 2.24616C3.42906 2.09892 3.29666 2.01674 3.16712 2.01674C3.08196 2.01674 3.00355 2.05949 2.94693 2.10164C2.89045 2.14369 2.88911 2.22282 2.93301 2.27786L2.95607 2.30677C2.95608 2.30679 2.9561 2.30681 2.95613 2.30682Z" fill="#FCD95E"/>
<path d="M2.91954 6.28696C2.91954 6.28696 2.91955 6.28696 2.91955 6.28696C2.91956 6.65498 3.24996 6.84412 3.50958 6.84412C3.85938 6.84412 4.04562 6.63498 4.04562 6.36121C4.04562 6.20612 4.01723 6.10878 3.9458 5.96043C3.94569 5.96022 3.94573 5.96029 3.94562 5.96007C3.94226 5.95308 3.36798 4.75879 3.14399 4.29605C3.11598 4.23817 3.10694 4.17226 3.10694 4.07567C3.10694 3.92648 3.25164 3.80454 3.40337 3.8008C3.54168 3.79735 3.69238 3.92975 3.69238 4.08063C3.69238 4.26387 3.59731 4.34558 3.49971 4.34558C3.37959 4.34558 3.33173 4.29619 3.33173 4.21186C3.33173 4.15309 3.36011 4.12767 3.4009 4.12767C3.43972 4.12767 3.45981 4.14736 3.46976 4.1719C3.48666 4.21356 3.52928 4.24909 3.54525 4.20706C3.54599 4.20512 3.54667 4.20314 3.54727 4.20113C3.55717 4.16833 3.57523 4.13117 3.6041 4.11272C3.62903 4.0968 3.62873 4.06139 3.60345 4.04605C3.57485 4.02869 3.55605 3.99463 3.55104 3.96155C3.54767 3.9393 3.53645 3.92251 3.51852 3.91007C3.49957 3.89693 3.47889 3.92239 3.47888 3.94545C3.47888 3.96189 3.46246 3.97012 3.44618 3.96784C3.33832 3.95271 3.19833 4.0092 3.19833 4.18214C3.19833 4.32773 3.27652 4.45554 3.42531 4.48759C3.44957 4.49282 3.49194 4.57842 3.48592 4.60249C3.48204 4.618 3.49765 4.63123 3.51316 4.62742C3.51666 4.62656 3.52009 4.62578 3.52345 4.62506C3.54503 4.62047 3.55872 4.64255 3.54746 4.66153C3.53696 4.67922 3.52694 4.69822 3.51951 4.72103C3.50615 4.76204 3.54594 4.78469 3.58741 4.77282C3.62095 4.76321 3.63873 4.80304 3.63031 4.83689C3.61628 4.89332 3.61967 4.9532 3.6397 5.00997C3.68602 5.14123 3.80357 5.01468 3.80357 4.87548C3.80357 4.44888 3.92213 4.37719 3.92213 4.08061C3.92213 3.9573 3.85916 3.82423 3.73434 3.7332C3.73334 3.73247 3.73192 3.73318 3.73192 3.73442C3.73192 3.73542 3.73289 3.73615 3.73385 3.73588C3.77207 3.72545 3.80395 3.71106 3.8302 3.69309C3.87414 3.66302 3.85073 3.6033 3.79821 3.59453C3.64452 3.56886 3.46459 3.57189 3.33833 3.60457C3.30051 3.61435 3.26231 3.62335 3.22462 3.63366C3.08435 3.67205 2.9874 3.78147 2.95628 3.8404C2.92106 3.90704 2.85263 4.1482 2.95628 4.36533C3.06975 4.60296 3.60467 5.7372 3.77145 6.09375C3.80682 6.16937 3.82828 6.24958 3.82828 6.33642C3.82828 6.55484 3.6282 6.6311 3.51454 6.6311C3.37868 6.6311 3.24035 6.52761 3.24035 6.39834C3.24035 6.31644 3.28483 6.26711 3.34905 6.26711C3.40191 6.26711 3.43547 6.28259 3.4555 6.30625C3.4991 6.35774 3.5723 6.41562 3.59358 6.35159C3.60729 6.31033 3.63581 6.27555 3.67426 6.25525C3.68209 6.25111 3.68985 6.24644 3.69753 6.2412C3.73231 6.21747 3.73553 6.16794 3.7016 6.143C3.65678 6.11004 3.61531 6.04096 3.58896 5.99196C3.55526 5.92931 3.50526 6.01036 3.45806 6.0636C3.43892 6.08519 3.40509 6.09873 3.34905 6.09873C3.25745 6.09873 3.08699 5.99947 3.08475 5.9079C3.08227 5.80694 3.08014 5.71699 3.07983 5.7041C3.0798 5.70294 3.07976 5.70189 3.07972 5.70073C3.07609 5.59254 3.18745 5.56737 3.29772 5.57961C3.34427 5.58477 3.38733 5.54161 3.36398 5.501C3.33603 5.45237 3.2987 5.41539 3.24801 5.39187C3.21273 5.3755 3.14154 5.22635 3.14154 5.18745C3.1415 5.01162 2.95061 5.07194 2.94611 5.24772L2.91953 6.28695C2.91953 6.28696 2.91954 6.28696 2.91954 6.28696Z" fill="#FCD95E"/>
<path d="M2.95616 17.9028C2.95621 17.9028 2.95621 17.9027 2.95626 17.9027C2.95788 17.9041 3.13101 18.049 3.18999 17.9758C3.28531 17.8575 2.89695 17.2683 2.89695 17.0608C2.89695 16.7202 3.12421 16.6276 3.40483 16.579C3.53625 16.5562 3.72529 16.5719 3.82752 16.5834C3.86035 16.5871 3.8732 16.6292 3.84843 16.6511C3.81519 16.6804 3.80073 16.763 3.82947 16.7968C3.88537 16.8625 3.92577 16.9526 3.92577 17.0675C3.92577 17.3605 3.80515 17.4813 3.80515 17.8116C3.80515 17.8237 3.8058 17.8359 3.80701 17.8483C3.82315 18.0134 3.69997 18.1548 3.63752 18.001C3.61314 17.941 3.6059 17.8754 3.61798 17.8123C3.62332 17.7844 3.60624 17.7543 3.57864 17.7609C3.54751 17.7683 3.51 17.758 3.5173 17.7268C3.5221 17.7063 3.53113 17.6855 3.54269 17.6653C3.55639 17.6413 3.54827 17.6096 3.5209 17.6132C3.51498 17.6139 3.50872 17.6151 3.50195 17.6165C3.48185 17.6208 3.46202 17.6128 3.46774 17.5931C3.47731 17.5601 3.44168 17.466 3.40836 17.4576C3.27441 17.4239 3.19689 17.3014 3.19689 17.1749C3.19689 17.0433 3.2891 16.9489 3.37925 16.9489C3.39547 16.9489 3.41594 16.9527 3.43505 16.9591C3.45712 16.9665 3.48409 16.9595 3.48445 16.9362C3.48494 16.9048 3.51467 16.872 3.53531 16.8957C3.54329 16.9048 3.54898 16.9156 3.55185 16.9281C3.55972 16.9624 3.57943 16.9986 3.6116 17.0129C3.61771 17.0156 3.62355 17.0187 3.62911 17.0221C3.65124 17.0356 3.6519 17.0667 3.63043 17.0812C3.62689 17.0836 3.62325 17.0859 3.61949 17.0879C3.58837 17.1051 3.56532 17.1508 3.55413 17.1846C3.54103 17.2241 3.49397 17.1886 3.48076 17.1491C3.47249 17.1244 3.455 17.1054 3.42066 17.1054C3.37685 17.1054 3.33693 17.1196 3.33693 17.1842C3.33693 17.2405 3.38608 17.3183 3.49971 17.3134C3.61334 17.3084 3.70546 17.235 3.70546 17.0537C3.70546 16.8863 3.57049 16.8031 3.39263 16.7977C3.23226 16.7928 3.11121 16.8796 3.11121 17.0451C3.11121 17.2653 3.42909 17.7672 3.42909 17.9634C3.42909 18.1107 3.29669 18.1929 3.16715 18.1929C3.08199 18.1929 3.00358 18.1501 2.94696 18.108C2.89048 18.0659 2.88914 17.9868 2.93305 17.9317L2.9561 17.9028C2.95611 17.9028 2.95614 17.9028 2.95616 17.9028Z" fill="#FCD95E"/>
<path d="M2.91957 13.9226C2.91957 13.9226 2.91958 13.9226 2.91958 13.9226C2.91959 13.5546 3.24999 13.3655 3.50961 13.3655C3.85941 13.3655 4.04565 13.5746 4.04565 13.8484C4.04565 14.0035 4.01726 14.1008 3.94583 14.2492C3.94572 14.2494 3.94576 14.2493 3.94565 14.2495C3.94229 14.2565 3.36801 15.4508 3.14402 15.9135C3.11601 15.9714 3.10697 16.0373 3.10697 16.1339C3.10697 16.2831 3.25167 16.4051 3.4034 16.4088C3.54171 16.4122 3.69241 16.2798 3.69241 16.129C3.69241 15.9457 3.59734 15.864 3.49974 15.864C3.37962 15.864 3.33176 15.9134 3.33176 15.9977C3.33176 16.0565 3.36014 16.0819 3.40093 16.0819C3.43975 16.0819 3.45984 16.0622 3.46979 16.0377C3.48669 15.996 3.52931 15.9605 3.54528 16.0025C3.54602 16.0045 3.5467 16.0065 3.5473 16.0085C3.5572 16.0413 3.57526 16.0784 3.60413 16.0969C3.62906 16.1128 3.62876 16.1482 3.60348 16.1635C3.57488 16.1809 3.55608 16.215 3.55107 16.248C3.5477 16.2703 3.53648 16.2871 3.51855 16.2995C3.4996 16.3127 3.47892 16.2872 3.47891 16.2641C3.47891 16.2477 3.46249 16.2395 3.44622 16.2418C3.33835 16.2569 3.19837 16.2004 3.19837 16.0275C3.19837 15.8819 3.27655 15.7541 3.42534 15.722C3.4496 15.7168 3.49197 15.6312 3.48595 15.6071C3.48207 15.5916 3.49768 15.5784 3.5132 15.5822C3.51669 15.583 3.52012 15.5838 3.52348 15.5845C3.54506 15.5891 3.55875 15.567 3.54749 15.5481C3.53699 15.5304 3.52697 15.5114 3.51954 15.4886C3.50618 15.4476 3.54597 15.4249 3.58744 15.4368C3.62098 15.4464 3.63876 15.4066 3.63035 15.3727C3.61631 15.3163 3.6197 15.2564 3.63973 15.1996C3.68605 15.0684 3.8036 15.1949 3.8036 15.3341C3.8036 15.7607 3.92216 15.8324 3.92216 16.129C3.92216 16.2523 3.85919 16.3854 3.73437 16.4764C3.73337 16.4771 3.73195 16.4764 3.73195 16.4752C3.73195 16.4742 3.73292 16.4734 3.73388 16.4737C3.7721 16.4841 3.80398 16.4985 3.83023 16.5165C3.87417 16.5466 3.85076 16.6063 3.79824 16.6151C3.64455 16.6407 3.46462 16.6377 3.33836 16.605C3.30054 16.5952 3.26234 16.5862 3.22465 16.5759C3.08438 16.5375 2.98743 16.4281 2.95631 16.3692C2.92109 16.3026 2.85266 16.0614 2.95631 15.8443C3.06978 15.6066 3.6047 14.4724 3.77148 14.1158C3.80685 14.0402 3.82831 13.96 3.82831 13.8732C3.82831 13.6548 3.62823 13.5785 3.51457 13.5785C3.37871 13.5785 3.24038 13.682 3.24038 13.8113C3.24038 13.8932 3.28486 13.9425 3.34908 13.9425C3.40194 13.9425 3.4355 13.927 3.45554 13.9033C3.49913 13.8519 3.57233 13.794 3.59361 13.858C3.60732 13.8993 3.63584 13.934 3.67429 13.9543C3.68212 13.9585 3.68988 13.9632 3.69756 13.9684C3.73234 13.9921 3.73556 14.0417 3.70163 14.0666C3.65681 14.0996 3.61534 14.1686 3.58899 14.2176C3.55529 14.2803 3.50529 14.1992 3.45809 14.146C3.43895 14.1244 3.40512 14.1109 3.34908 14.1109C3.25748 14.1109 3.08702 14.2101 3.08478 14.3017C3.0823 14.4027 3.08017 14.4926 3.07986 14.5055C3.07983 14.5067 3.07979 14.5077 3.07975 14.5089C3.07612 14.6171 3.18748 14.6422 3.29775 14.63C3.3443 14.6248 3.38736 14.668 3.36401 14.7086C3.33606 14.7572 3.29873 14.7942 3.24804 14.8177C3.21276 14.8341 3.14157 14.9832 3.14157 15.0221C3.14153 15.198 2.95064 15.1377 2.94614 14.9619L2.91956 13.9226C2.91956 13.9226 2.91957 13.9226 2.91957 13.9226Z" fill="#FCD95E"/>
<path d="M2.96648 17.9028C2.96642 17.9028 2.96642 17.9027 2.96638 17.9027C2.96475 17.9041 2.79163 18.049 2.73265 17.9758C2.63733 17.8575 3.02569 17.2683 3.02569 17.0608C3.02569 16.7202 2.79843 16.6276 2.51781 16.579C2.38639 16.5562 2.19734 16.5719 2.09512 16.5834C2.06229 16.5871 2.04944 16.6292 2.07421 16.6511C2.10745 16.6804 2.12191 16.763 2.09317 16.7968C2.03727 16.8625 1.99687 16.9526 1.99687 17.0675C1.99687 17.3605 2.11748 17.4813 2.11748 17.8116C2.11748 17.8237 2.11684 17.8359 2.11563 17.8483C2.09949 18.0134 2.22266 18.1548 2.28512 18.001C2.3095 17.941 2.31674 17.8754 2.30466 17.8123C2.29932 17.7844 2.3164 17.7543 2.344 17.7609C2.37513 17.7683 2.41263 17.758 2.40534 17.7268C2.40054 17.7063 2.39151 17.6855 2.37994 17.6653C2.36625 17.6413 2.37437 17.6096 2.40174 17.6132C2.40766 17.6139 2.41391 17.6151 2.42069 17.6165C2.44079 17.6208 2.46062 17.6128 2.4549 17.5931C2.44532 17.5601 2.48096 17.466 2.51428 17.4576C2.64822 17.4239 2.72575 17.3014 2.72575 17.1749C2.72575 17.0433 2.63353 16.9489 2.54339 16.9489C2.52717 16.9489 2.5067 16.9527 2.48759 16.9591C2.46552 16.9665 2.43855 16.9595 2.43818 16.9362C2.4377 16.9048 2.40797 16.872 2.38733 16.8957C2.37935 16.9048 2.37366 16.9156 2.37079 16.9281C2.36292 16.9624 2.3432 16.9986 2.31104 17.0129C2.30493 17.0156 2.29909 17.0187 2.29353 17.0221C2.2714 17.0356 2.27074 17.0667 2.2922 17.0812C2.29574 17.0836 2.29939 17.0859 2.30314 17.0879C2.33427 17.1051 2.35732 17.1508 2.36851 17.1846C2.38161 17.2241 2.42867 17.1886 2.44188 17.1491C2.45014 17.1244 2.46764 17.1054 2.50197 17.1054C2.54579 17.1054 2.58571 17.1196 2.58571 17.1842C2.58571 17.2405 2.53656 17.3183 2.42292 17.3134C2.3093 17.3084 2.21718 17.235 2.21718 17.0537C2.21718 16.8863 2.35215 16.8031 2.53001 16.7977C2.69038 16.7928 2.81143 16.8796 2.81143 17.0451C2.81143 17.2653 2.49355 17.7672 2.49355 17.9634C2.49355 18.1107 2.62594 18.1929 2.75549 18.1929C2.84065 18.1929 2.91906 18.1501 2.97567 18.108C3.03215 18.0659 3.0335 17.9868 2.98959 17.9317L2.96654 17.9028C2.96652 17.9028 2.9665 17.9028 2.96648 17.9028Z" fill="#FCD95E"/>
<path d="M3.00307 13.9226C3.00306 13.9226 3.00306 13.9226 3.00306 13.9226C3.00305 13.5546 2.67265 13.3655 2.41302 13.3655C2.06323 13.3655 1.87698 13.5746 1.87698 13.8484C1.87698 14.0035 1.90537 14.1008 1.97681 14.2492C1.97692 14.2494 1.97688 14.2493 1.97698 14.2495C1.98035 14.2565 2.55463 15.4508 2.77861 15.9135C2.80663 15.9714 2.81567 16.0373 2.81567 16.1339C2.81567 16.2831 2.67097 16.4051 2.51924 16.4088C2.38092 16.4122 2.23023 16.2798 2.23023 16.129C2.23023 15.9457 2.32529 15.864 2.4229 15.864C2.54302 15.864 2.59088 15.9134 2.59088 15.9977C2.59088 16.0565 2.5625 16.0819 2.52171 16.0819C2.48289 16.0819 2.4628 16.0622 2.45284 16.0377C2.43594 15.996 2.39333 15.9605 2.37735 16.0025C2.37662 16.0045 2.37594 16.0065 2.37533 16.0085C2.36544 16.0413 2.34738 16.0784 2.31851 16.0969C2.29358 16.1128 2.29388 16.1482 2.31916 16.1635C2.34776 16.1809 2.36656 16.215 2.37157 16.248C2.37493 16.2703 2.38616 16.2871 2.40409 16.2995C2.42303 16.3127 2.44372 16.2872 2.44373 16.2641C2.44373 16.2477 2.46015 16.2395 2.47642 16.2418C2.58428 16.2569 2.72427 16.2004 2.72427 16.0275C2.72427 15.8819 2.64609 15.7541 2.4973 15.722C2.47304 15.7168 2.43067 15.6312 2.43669 15.6071C2.44057 15.5916 2.42496 15.5784 2.40944 15.5822C2.40595 15.583 2.40252 15.5838 2.39916 15.5845C2.37758 15.5891 2.36389 15.567 2.37515 15.5481C2.38565 15.5304 2.39567 15.5114 2.4031 15.4886C2.41646 15.4476 2.37667 15.4249 2.3352 15.4368C2.30166 15.4464 2.28387 15.4066 2.29229 15.3727C2.30632 15.3163 2.30293 15.2564 2.2829 15.1996C2.23658 15.0684 2.11904 15.1949 2.11904 15.3341C2.11904 15.7607 2.00048 15.8324 2.00048 16.129C2.00048 16.2523 2.06345 16.3854 2.18827 16.4764C2.18927 16.4771 2.19068 16.4764 2.19068 16.4752C2.19068 16.4742 2.18972 16.4734 2.18876 16.4737C2.15053 16.4841 2.11866 16.4985 2.09241 16.5165C2.04847 16.5466 2.07187 16.6063 2.1244 16.6151C2.27809 16.6407 2.45802 16.6377 2.58427 16.605C2.6221 16.5952 2.6603 16.5862 2.69798 16.5759C2.83826 16.5375 2.93521 16.4281 2.96633 16.3692C3.00155 16.3026 3.06998 16.0614 2.96633 15.8443C2.85285 15.6066 2.31794 14.4724 2.15116 14.1158C2.11579 14.0402 2.09433 13.96 2.09433 13.8732C2.09433 13.6548 2.29441 13.5785 2.40807 13.5785C2.54393 13.5785 2.68226 13.682 2.68226 13.8113C2.68226 13.8932 2.63778 13.9425 2.57356 13.9425C2.5207 13.9425 2.48714 13.927 2.4671 13.9033C2.42351 13.8519 2.35031 13.794 2.32903 13.858C2.31532 13.8993 2.2868 13.934 2.24835 13.9543C2.24052 13.9585 2.23276 13.9632 2.22508 13.9684C2.1903 13.9921 2.18708 14.0417 2.221 14.0666C2.26583 14.0996 2.3073 14.1686 2.33365 14.2176C2.36735 14.2803 2.41735 14.1992 2.46455 14.146C2.48369 14.1244 2.51752 14.1109 2.57356 14.1109C2.66516 14.1109 2.83562 14.2101 2.83786 14.3017C2.84034 14.4027 2.84247 14.4926 2.84278 14.5055C2.8428 14.5067 2.84284 14.5077 2.84288 14.5089C2.84652 14.6171 2.73516 14.6422 2.62489 14.63C2.57834 14.6248 2.53528 14.668 2.55862 14.7086C2.58658 14.7572 2.62391 14.7942 2.67459 14.8177C2.70988 14.8341 2.78106 14.9832 2.78106 15.0221C2.78111 15.198 2.972 15.1377 2.97649 14.9619L3.00308 13.9226C3.00308 13.9226 3.00307 13.9226 3.00307 13.9226Z" fill="#FCD95E"/>
<path d="M2.91957 7.38638C2.91957 7.38638 2.91958 7.38638 2.91958 7.38638C2.91959 7.01836 3.24999 6.82922 3.50961 6.82922C3.85941 6.82922 4.04565 7.03836 4.04565 7.31213C4.04565 7.46722 4.01726 7.56456 3.94583 7.71291C3.94572 7.71312 3.94576 7.71305 3.94565 7.71327C3.94229 7.72026 3.36801 8.91455 3.14402 9.37729C3.11601 9.43517 3.10697 9.50108 3.10697 9.59767C3.10697 9.74686 3.25167 9.8688 3.4034 9.87254C3.54171 9.87599 3.69241 9.74359 3.69241 9.59271C3.69241 9.40947 3.59734 9.32776 3.49974 9.32776C3.37962 9.32776 3.33176 9.37715 3.33176 9.46148C3.33176 9.52025 3.36014 9.54567 3.40093 9.54567C3.43975 9.54567 3.45984 9.52598 3.46979 9.50144C3.48669 9.45978 3.52931 9.42425 3.54528 9.46628C3.54602 9.46822 3.5467 9.4702 3.5473 9.47221C3.5572 9.50501 3.57526 9.54217 3.60413 9.56062C3.62906 9.57654 3.62876 9.61195 3.60348 9.62729C3.57488 9.64465 3.55608 9.67871 3.55107 9.71179C3.5477 9.73404 3.53648 9.75083 3.51855 9.76327C3.4996 9.77641 3.47892 9.75095 3.47891 9.72788C3.47891 9.71145 3.46249 9.70322 3.44622 9.7055C3.33835 9.72063 3.19837 9.66414 3.19837 9.4912C3.19837 9.34561 3.27655 9.2178 3.42534 9.18575C3.4496 9.18052 3.49197 9.09492 3.48595 9.07085C3.48207 9.05534 3.49768 9.04211 3.5132 9.04592C3.51669 9.04678 3.52012 9.04756 3.52348 9.04828C3.54506 9.05287 3.55875 9.03079 3.54749 9.01181C3.53699 8.99412 3.52697 8.97512 3.51954 8.95231C3.50618 8.9113 3.54597 8.88865 3.58744 8.90052C3.62098 8.91013 3.63876 8.8703 3.63035 8.83645C3.61631 8.78002 3.6197 8.72014 3.63973 8.66337C3.68605 8.5321 3.8036 8.65866 3.8036 8.79786C3.8036 9.22446 3.92216 9.29615 3.92216 9.59273C3.92216 9.71604 3.85919 9.84911 3.73437 9.94014C3.73337 9.94087 3.73195 9.94016 3.73195 9.93892C3.73195 9.93792 3.73292 9.93719 3.73388 9.93746C3.7721 9.94789 3.80398 9.96228 3.83023 9.98025C3.87417 10.0103 3.85076 10.07 3.79824 10.0788C3.64455 10.1045 3.46462 10.1014 3.33836 10.0688C3.30054 10.059 3.26234 10.05 3.22465 10.0397C3.08438 10.0013 2.98743 9.89187 2.95631 9.83294C2.92109 9.7663 2.85266 9.52514 2.95631 9.30801C3.06978 9.07038 3.6047 7.93614 3.77148 7.57959C3.80685 7.50397 3.82831 7.42376 3.82831 7.33691C3.82831 7.1185 3.62823 7.04224 3.51457 7.04224C3.37871 7.04224 3.24038 7.14573 3.24038 7.275C3.24038 7.3569 3.28486 7.40623 3.34908 7.40623C3.40194 7.40623 3.4355 7.39075 3.45554 7.36709C3.49913 7.3156 3.57233 7.25772 3.59361 7.32175C3.60732 7.36301 3.63584 7.39779 3.67429 7.41809C3.68212 7.42223 3.68988 7.4269 3.69756 7.43214C3.73234 7.45587 3.73556 7.5054 3.70163 7.53034C3.65681 7.5633 3.61534 7.63238 3.58899 7.68138C3.55529 7.74403 3.50529 7.66298 3.45809 7.60974C3.43895 7.58815 3.40512 7.57461 3.34908 7.57461C3.25748 7.57461 3.08702 7.67387 3.08478 7.76544C3.0823 7.8664 3.08017 7.95635 3.07986 7.96924C3.07983 7.9704 3.07979 7.97145 3.07975 7.97261C3.07612 8.0808 3.18748 8.10597 3.29775 8.09373C3.3443 8.08857 3.38736 8.13173 3.36401 8.17234C3.33606 8.22096 3.29873 8.25795 3.24804 8.28147C3.21276 8.29784 3.14157 8.44699 3.14157 8.48588C3.14153 8.66172 2.95064 8.6014 2.94614 8.42562L2.91956 7.38639C2.91956 7.38638 2.91957 7.38638 2.91957 7.38638Z" fill="#FCD95E"/>
<path d="M3.00307 7.38638C3.00306 7.38638 3.00306 7.38638 3.00306 7.38638C3.00305 7.01836 2.67265 6.82922 2.41302 6.82922C2.06323 6.82922 1.87698 7.03836 1.87698 7.31213C1.87698 7.46722 1.90537 7.56456 1.97681 7.71291C1.97692 7.71312 1.97688 7.71305 1.97698 7.71327C1.98035 7.72026 2.55463 8.91455 2.77861 9.37729C2.80663 9.43517 2.81567 9.50108 2.81567 9.59767C2.81567 9.74686 2.67097 9.8688 2.51924 9.87254C2.38092 9.87599 2.23023 9.74359 2.23023 9.59271C2.23023 9.40947 2.32529 9.32776 2.4229 9.32776C2.54302 9.32776 2.59088 9.37715 2.59088 9.46148C2.59088 9.52025 2.5625 9.54567 2.52171 9.54567C2.48289 9.54567 2.4628 9.52598 2.45284 9.50144C2.43594 9.45978 2.39333 9.42425 2.37735 9.46628C2.37662 9.46822 2.37594 9.4702 2.37533 9.47221C2.36544 9.50501 2.34738 9.54217 2.31851 9.56062C2.29358 9.57654 2.29388 9.61195 2.31916 9.62729C2.34776 9.64465 2.36656 9.67871 2.37157 9.71179C2.37493 9.73404 2.38616 9.75083 2.40409 9.76327C2.42303 9.77641 2.44372 9.75095 2.44373 9.72789C2.44373 9.71145 2.46015 9.70322 2.47642 9.7055C2.58428 9.72063 2.72427 9.66414 2.72427 9.4912C2.72427 9.34561 2.64609 9.2178 2.4973 9.18575C2.47304 9.18052 2.43067 9.09492 2.43669 9.07085C2.44057 9.05534 2.42496 9.04211 2.40944 9.04592C2.40595 9.04678 2.40252 9.04756 2.39916 9.04828C2.37758 9.05287 2.36389 9.03079 2.37515 9.01181C2.38565 8.99412 2.39567 8.97512 2.4031 8.95231C2.41646 8.9113 2.37667 8.88865 2.3352 8.90052C2.30166 8.91013 2.28387 8.8703 2.29229 8.83645C2.30632 8.78002 2.30293 8.72014 2.2829 8.66337C2.23658 8.53211 2.11904 8.65866 2.11904 8.79786C2.11904 9.22446 2.00048 9.29615 2.00048 9.59273C2.00048 9.71604 2.06345 9.84911 2.18827 9.94014C2.18927 9.94087 2.19068 9.94016 2.19068 9.93892C2.19068 9.93792 2.18972 9.93719 2.18876 9.93746C2.15053 9.94789 2.11866 9.96228 2.09241 9.98025C2.04847 10.0103 2.07187 10.07 2.1244 10.0788C2.27809 10.1045 2.45802 10.1014 2.58427 10.0688C2.6221 10.059 2.6603 10.05 2.69798 10.0397C2.83826 10.0013 2.93521 9.89187 2.96633 9.83294C3.00155 9.7663 3.06998 9.52514 2.96633 9.30801C2.85285 9.07038 2.31794 7.93614 2.15116 7.57959C2.11579 7.50397 2.09433 7.42376 2.09433 7.33692C2.09433 7.1185 2.29441 7.04224 2.40807 7.04224C2.54393 7.04224 2.68226 7.14573 2.68226 7.275C2.68226 7.3569 2.63778 7.40623 2.57356 7.40623C2.5207 7.40623 2.48714 7.39075 2.4671 7.36709C2.42351 7.3156 2.35031 7.25772 2.32903 7.32175C2.31532 7.36301 2.2868 7.39779 2.24835 7.41809C2.24052 7.42223 2.23276 7.4269 2.22508 7.43214C2.1903 7.45587 2.18708 7.5054 2.221 7.53034C2.26583 7.5633 2.3073 7.63238 2.33365 7.68138C2.36735 7.74403 2.41735 7.66298 2.46455 7.60974C2.48369 7.58815 2.51752 7.57461 2.57356 7.57461C2.66516 7.57461 2.83562 7.67387 2.83786 7.76544C2.84034 7.8664 2.84247 7.95635 2.84278 7.96924C2.8428 7.9704 2.84284 7.97145 2.84288 7.97261C2.84652 8.0808 2.73516 8.10597 2.62489 8.09373C2.57834 8.08857 2.53528 8.13173 2.55862 8.17234C2.58658 8.22097 2.62391 8.25795 2.67459 8.28147C2.70988 8.29784 2.78106 8.44699 2.78106 8.48589C2.78111 8.66172 2.972 8.6014 2.97649 8.42562L3.00308 7.38639C3.00308 7.38638 3.00307 7.38638 3.00307 7.38638Z" fill="#FCD95E"/>
<path d="M3.00307 12.8069C3.00306 12.8069 3.00306 12.8069 3.00306 12.8069C3.00305 13.1749 2.67265 13.364 2.41302 13.364C2.06323 13.364 1.87698 13.1549 1.87698 12.8811C1.87698 12.726 1.90537 12.6287 1.97681 12.4803C1.97692 12.4801 1.97688 12.4802 1.97698 12.48C1.98035 12.473 2.55463 11.2787 2.77861 10.8159C2.80663 10.7581 2.81567 10.6922 2.81567 10.5956C2.81567 10.4464 2.67097 10.3244 2.51924 10.3207C2.38092 10.3173 2.23023 10.4496 2.23023 10.6005C2.23023 10.7838 2.32529 10.8655 2.4229 10.8655C2.54302 10.8655 2.59088 10.8161 2.59088 10.7318C2.59088 10.673 2.5625 10.6476 2.52171 10.6476C2.48289 10.6476 2.4628 10.6673 2.45284 10.6918C2.43594 10.7335 2.39333 10.769 2.37735 10.727C2.37662 10.725 2.37594 10.723 2.37533 10.721C2.36544 10.6882 2.34738 10.6511 2.31851 10.6326C2.29358 10.6167 2.29388 10.5813 2.31916 10.5659C2.34776 10.5486 2.36656 10.5145 2.37157 10.4814C2.37493 10.4592 2.38616 10.4424 2.40409 10.43C2.42303 10.4168 2.44372 10.4423 2.44373 10.4654C2.44373 10.4818 2.46015 10.49 2.47642 10.4877C2.58428 10.4726 2.72427 10.5291 2.72427 10.702C2.72427 10.8476 2.64609 10.9754 2.4973 11.0075C2.47304 11.0127 2.43067 11.0983 2.43669 11.1224C2.44057 11.1379 2.42496 11.1511 2.40944 11.1473C2.40595 11.1465 2.40252 11.1457 2.39916 11.145C2.37758 11.1404 2.36389 11.1625 2.37515 11.1814C2.38565 11.1991 2.39567 11.2181 2.4031 11.2409C2.41646 11.2819 2.37667 11.3046 2.3352 11.2927C2.30166 11.2831 2.28387 11.3229 2.29229 11.3568C2.30632 11.4132 2.30293 11.4731 2.2829 11.5299C2.23658 11.6611 2.11904 11.5346 2.11904 11.3954C2.11904 10.9688 2.00048 10.8971 2.00048 10.6005C2.00048 10.4772 2.06345 10.3441 2.18827 10.2531C2.18927 10.2524 2.19068 10.2531 2.19068 10.2543C2.19068 10.2553 2.18972 10.256 2.18876 10.2558C2.15053 10.2453 2.11866 10.231 2.09241 10.213C2.04847 10.1829 2.07187 10.1232 2.1244 10.1144C2.27809 10.0888 2.45802 10.0918 2.58427 10.1245C2.6221 10.1343 2.6603 10.1432 2.69798 10.1536C2.83826 10.192 2.93521 10.3014 2.96633 10.3603C3.00155 10.4269 3.06998 10.6681 2.96633 10.8852C2.85285 11.1229 2.31794 12.2571 2.15116 12.6136C2.11579 12.6893 2.09433 12.7695 2.09433 12.8563C2.09433 13.0747 2.29441 13.151 2.40807 13.151C2.54393 13.151 2.68226 13.0475 2.68226 12.9182C2.68226 12.8363 2.63778 12.787 2.57356 12.787C2.5207 12.787 2.48714 12.8025 2.4671 12.8261C2.42351 12.8776 2.35031 12.9355 2.32903 12.8715C2.31532 12.8302 2.2868 12.7954 2.24835 12.7751C2.24052 12.771 2.23276 12.7663 2.22508 12.7611C2.1903 12.7374 2.18708 12.6878 2.221 12.6629C2.26583 12.6299 2.3073 12.5609 2.33365 12.5119C2.36735 12.4492 2.41735 12.5303 2.46455 12.5835C2.48369 12.6051 2.51752 12.6186 2.57356 12.6186C2.66516 12.6186 2.83562 12.5194 2.83786 12.4278C2.84034 12.3268 2.84247 12.2369 2.84278 12.224C2.8428 12.2228 2.84284 12.2218 2.84288 12.2206C2.84652 12.1124 2.73516 12.0873 2.62489 12.0995C2.57834 12.1047 2.53528 12.0615 2.55862 12.0209C2.58658 11.9723 2.62391 11.9353 2.67459 11.9118C2.70988 11.8954 2.78106 11.7462 2.78106 11.7074C2.78111 11.5315 2.972 11.5918 2.97649 11.7676L3.00308 12.8069C3.00308 12.8069 3.00307 12.8069 3.00307 12.8069Z" fill="#FCD95E"/>
<path d="M2.91957 12.8069C2.91957 12.8069 2.91958 12.8069 2.91958 12.8069C2.91959 13.1749 3.24999 13.364 3.50961 13.364C3.85941 13.364 4.04565 13.1549 4.04565 12.8811C4.04565 12.726 4.01726 12.6287 3.94583 12.4803C3.94572 12.4801 3.94576 12.4802 3.94565 12.48C3.94229 12.473 3.36801 11.2787 3.14402 10.8159C3.11601 10.7581 3.10697 10.6922 3.10697 10.5956C3.10697 10.4464 3.25167 10.3244 3.4034 10.3207C3.54171 10.3173 3.69241 10.4496 3.69241 10.6005C3.69241 10.7838 3.59734 10.8655 3.49974 10.8655C3.37962 10.8655 3.33176 10.8161 3.33176 10.7318C3.33176 10.673 3.36014 10.6476 3.40093 10.6476C3.43975 10.6476 3.45984 10.6673 3.46979 10.6918C3.48669 10.7335 3.52931 10.769 3.54528 10.727C3.54602 10.725 3.5467 10.723 3.5473 10.721C3.5572 10.6882 3.57526 10.6511 3.60413 10.6326C3.62906 10.6167 3.62876 10.5813 3.60348 10.5659C3.57488 10.5486 3.55608 10.5145 3.55107 10.4814C3.5477 10.4592 3.53648 10.4424 3.51855 10.43C3.4996 10.4168 3.47892 10.4423 3.47891 10.4654C3.47891 10.4818 3.46249 10.49 3.44622 10.4877C3.33835 10.4726 3.19837 10.5291 3.19837 10.702C3.19837 10.8476 3.27655 10.9754 3.42534 11.0075C3.4496 11.0127 3.49197 11.0983 3.48595 11.1224C3.48207 11.1379 3.49768 11.1511 3.5132 11.1473C3.51669 11.1465 3.52012 11.1457 3.52348 11.145C3.54506 11.1404 3.55875 11.1625 3.54749 11.1814C3.53699 11.1991 3.52697 11.2181 3.51954 11.2409C3.50618 11.2819 3.54597 11.3046 3.58744 11.2927C3.62098 11.2831 3.63876 11.3229 3.63035 11.3568C3.61631 11.4132 3.6197 11.4731 3.63973 11.5299C3.68605 11.6611 3.8036 11.5346 3.8036 11.3954C3.8036 10.9688 3.92216 10.8971 3.92216 10.6005C3.92216 10.4772 3.85919 10.3441 3.73437 10.2531C3.73337 10.2524 3.73195 10.2531 3.73195 10.2543C3.73195 10.2553 3.73292 10.256 3.73388 10.2558C3.7721 10.2453 3.80398 10.231 3.83023 10.213C3.87417 10.1829 3.85076 10.1232 3.79824 10.1144C3.64455 10.0888 3.46462 10.0918 3.33836 10.1245C3.30054 10.1343 3.26234 10.1432 3.22465 10.1536C3.08438 10.192 2.98743 10.3014 2.95631 10.3603C2.92109 10.4269 2.85266 10.6681 2.95631 10.8852C3.06978 11.1229 3.6047 12.2571 3.77148 12.6136C3.80685 12.6893 3.82831 12.7695 3.82831 12.8563C3.82831 13.0747 3.62823 13.151 3.51457 13.151C3.37871 13.151 3.24038 13.0475 3.24038 12.9182C3.24038 12.8363 3.28486 12.787 3.34908 12.787C3.40194 12.787 3.4355 12.8025 3.45554 12.8261C3.49913 12.8776 3.57233 12.9355 3.59361 12.8715C3.60732 12.8302 3.63584 12.7954 3.67429 12.7751C3.68212 12.771 3.68988 12.7663 3.69756 12.7611C3.73234 12.7374 3.73556 12.6878 3.70163 12.6629C3.65681 12.6299 3.61534 12.5609 3.58899 12.5119C3.55529 12.4492 3.50529 12.5303 3.45809 12.5835C3.43895 12.6051 3.40512 12.6186 3.34908 12.6186C3.25748 12.6186 3.08702 12.5194 3.08478 12.4278C3.0823 12.3268 3.08017 12.2369 3.07986 12.224C3.07983 12.2228 3.07979 12.2218 3.07975 12.2206C3.07612 12.1124 3.18748 12.0873 3.29775 12.0995C3.3443 12.1047 3.38736 12.0615 3.36401 12.0209C3.33606 11.9723 3.29873 11.9353 3.24804 11.9118C3.21276 11.8954 3.14157 11.7462 3.14157 11.7074C3.14153 11.5315 2.95064 11.5918 2.94614 11.7676L2.91956 12.8069C2.91956 12.8069 2.91957 12.8069 2.91957 12.8069Z" fill="#FCD95E"/>
</svg>
