<svg width="20" height="20" viewBox="0 0 20 20" fill="none" xmlns="http://www.w3.org/2000/svg">
<rect width="20" height="10.7807" rx="2.36512" fill="#FCD95E"/>
<rect y="9.51355" width="20" height="10.4864" rx="2.36512" fill="#EE5757"/>
<rect y="6.66644" width="20" height="6.66666" fill="#59C785"/>
<mask id="mask0_930_8210" style="mask-type:alpha" maskUnits="userSpaceOnUse" x="-3" y="0" width="26" height="20">
<path d="M-2.4597 5.28622C-2.14197 2.77458 -0.0815287 0.96096 2.44149 0.751941C4.49156 0.582103 7.13889 0.428162 10 0.428162C12.8612 0.428162 15.5085 0.582103 17.5586 0.751941C20.0816 0.96096 22.142 2.77458 22.4598 5.28622C22.6306 6.63705 22.7625 8.24732 22.7625 10C22.7625 11.7527 22.6306 13.363 22.4598 14.7138C22.142 17.2255 20.0816 19.0391 17.5586 19.2481C15.5085 19.418 12.8612 19.5719 10 19.5719C7.13889 19.5719 4.49156 19.418 2.44148 19.2481C-0.0815299 19.0391 -2.14197 17.2255 -2.4597 14.7138C-2.63057 13.363 -2.76245 11.7527 -2.76245 10C-2.76245 8.24732 -2.63057 6.63705 -2.4597 5.28622Z" fill="#00D0BF"/>
</mask>
<g mask="url(#mask0_930_8210)">
<path d="M10.0001 3.61877L11.5521 8.39555H16.5747L12.5113 11.3478L14.0634 16.1245L10.0001 13.1723L5.93668 16.1245L7.48875 11.3478L3.42538 8.39555H8.44798L10.0001 3.61877Z" fill="white"/>
</g>
</svg>
