<svg width="28" height="28" viewBox="0 0 28 28" fill="none" xmlns="http://www.w3.org/2000/svg">
<path d="M0 0V14V28H14H28V14V0H14H0Z" fill="#D80027"/>
<path d="M13.4267 11.4399L14.5755 13.0228L16.4358 12.4196L15.2852 14.0012L16.4338 15.584L14.5741 14.9785L13.4237 16.5601L13.4249 14.6044L11.5652 13.9989L13.4255 13.3957L13.4267 11.4399Z" fill="white"/>
<path d="M10.2919 17.9566C8.10681 17.9566 6.33538 16.1851 6.33538 14C6.33538 11.8149 8.10681 10.0435 10.2919 10.0435C10.9732 10.0435 11.6143 10.2158 12.1739 10.5191C11.2959 9.66035 10.0951 9.13043 8.77017 9.13043C6.08075 9.13043 3.90063 11.3106 3.90063 14C3.90063 16.6893 6.08081 18.8695 8.77017 18.8695C10.0953 18.8695 11.296 18.3395 12.1739 17.4809C11.6143 17.7842 10.9732 17.9566 10.2919 17.9566Z" fill="white"/>
</svg>
