<svg width="20" height="20" viewBox="0 0 20 20" fill="none" xmlns="http://www.w3.org/2000/svg">
<g clip-path="url(#clip0_5392_4073)">
<rect y="13" width="20" height="7" fill="#6DA544"/>
<rect width="20" height="7" fill="#338AF3"/>
<rect y="6.95703" width="20" height="0.869502" fill="#D80027"/>
<rect y="12.1738" width="20" height="0.869503" fill="#D80027"/>
<rect y="7.82617" width="20" height="4.34776" fill="white"/>
<path d="M0.472188 6.95629C0.165859 7.91598 -3.90556e-05 8.93836 6.89667e-09 9.99965C-3.90556e-05 11.061 0.165898 12.0834 0.472227 13.0431L10 13.478L19.5278 13.0432C19.8341 12.0835 20 11.061 20 9.99973C20 8.9384 19.8341 7.91598 19.5278 6.95625L10 6.52148L0.472188 6.95629Z" fill="white"/>
<path d="M19.5277 6.95625L9.99994 6.52148L0.472124 6.95625C0.381343 7.24078 0.303179 7.5309 0.237671 7.82582H19.762C19.6966 7.53086 19.6185 7.2407 19.5277 6.95625Z" fill="#D80027"/>
<path d="M0.237793 12.1738C0.303223 12.4688 0.381387 12.7588 0.472168 13.0434L0.473106 13.0434L9.9999 13.4782L19.5277 13.0434C19.6185 12.7589 19.6966 12.4688 19.7621 12.1738H0.237793Z" fill="#D80027"/>
<path d="M10.0277 19.9995C14.4893 19.9995 18.2678 17.0775 19.5555 13.043H0.5C1.7877 17.0775 5.56629 19.9995 10.0277 19.9995Z" fill="#6DA544"/>
<path d="M9.99994 3.91644e-10C5.53846 3.90629e-05 1.75994 2.92203 0.472168 6.95652L19.5277 6.95656C18.2401 2.92199 14.4615 -3.90621e-05 9.99994 3.91644e-10Z" fill="#338AF3"/>
<path d="M4.56972 4.13031C4.56972 3.19371 5.22796 2.41129 6.10698 2.21934C5.9719 2.1898 5.83171 2.17383 5.68772 2.17383C4.60718 2.17383 3.7312 3.04976 3.7312 4.13035C3.7312 5.21093 4.6071 6.08687 5.68772 6.08687C5.83171 6.08687 5.97186 6.07086 6.10698 6.04136C5.228 5.84933 4.56972 5.06691 4.56972 4.13031Z" fill="white"/>
<path d="M7.26336 5.01953L7.39579 5.42715H7.82438L7.47766 5.6791L7.61008 6.08672L7.26336 5.8348L6.91657 6.08672L7.04903 5.6791L6.70227 5.42715H7.13086L7.26336 5.01953Z" fill="white"/>
<path d="M8.63133 5.01953L8.76379 5.42715H9.19238L8.84562 5.6791L8.97809 6.08672L8.63133 5.8348L8.28457 6.08672L8.41703 5.6791L8.07031 5.42715H8.49887L8.63133 5.01953Z" fill="white"/>
<path d="M9.99933 5.01953L10.1317 5.42715H10.5604L10.2136 5.6791L10.346 6.08672L9.99933 5.8348L9.65253 6.08672L9.78503 5.6791L9.43823 5.42715H9.86687L9.99933 5.01953Z" fill="white"/>
<path d="M11.3674 5.01953L11.4998 5.42715H11.9284L11.5817 5.6791L11.7141 6.08672L11.3674 5.8348L11.0206 6.08672L11.1531 5.6791L10.8063 5.42715H11.2349L11.3674 5.01953Z" fill="white"/>
<path d="M12.7353 5.01953L12.8678 5.42715H13.2964L12.9497 5.6791L13.0821 6.08672L12.7353 5.8348L12.3886 6.08672L12.521 5.6791L12.1743 5.42715H12.6029L12.7353 5.01953Z" fill="white"/>
<path d="M8.63133 3.59668L8.76379 4.00426H9.19238L8.84562 4.25625L8.97809 4.66383L8.63133 4.41191L8.28457 4.66383L8.41703 4.25625L8.07031 4.00426H8.49887L8.63133 3.59668Z" fill="white"/>
<path d="M9.99933 3.59668L10.1317 4.00426H10.5604L10.2136 4.25625L10.346 4.66383L9.99933 4.41191L9.65253 4.66383L9.78503 4.25625L9.43823 4.00426H9.86687L9.99933 3.59668Z" fill="white"/>
<path d="M11.3674 3.59668L11.4998 4.00426H11.9284L11.5817 4.25625L11.7141 4.66383L11.3674 4.41191L11.0206 4.66383L11.1531 4.25625L10.8063 4.00426H11.2349L11.3674 3.59668Z" fill="white"/>
<path d="M12.7353 3.59668L12.8678 4.00426H13.2964L12.9497 4.25625L13.0821 4.66383L12.7353 4.41191L12.3886 4.66383L12.521 4.25625L12.1743 4.00426H12.6029L12.7353 3.59668Z" fill="white"/>
<path d="M9.99933 2.17383L10.1317 2.58148H10.5604L10.2136 2.8334L10.346 3.24105L9.99933 2.98914L9.65253 3.24105L9.78503 2.8334L9.43823 2.58148H9.86687L9.99933 2.17383Z" fill="white"/>
<path d="M11.3674 2.17383L11.4998 2.58148H11.9284L11.5817 2.8334L11.7141 3.24105L11.3674 2.98914L11.0206 3.24105L11.1531 2.8334L10.8063 2.58148H11.2349L11.3674 2.17383Z" fill="white"/>
<path d="M12.7353 2.17383L12.8678 2.58148H13.2964L12.9497 2.8334L13.0821 3.24105L12.7353 2.98914L12.3886 3.24105L12.521 2.8334L12.1743 2.58148H12.6029L12.7353 2.17383Z" fill="white"/>
</g>
<defs>
<clipPath id="clip0_5392_4073">
<path d="M0 4C0 1.79086 1.79086 0 4 0H16C18.2091 0 20 1.79086 20 4V16C20 18.2091 18.2091 20 16 20H4C1.79086 20 0 18.2091 0 16V4Z" fill="white"/>
</clipPath>
</defs>
</svg>
