<svg width="28" height="28" viewBox="0 0 28 28" fill="none" xmlns="http://www.w3.org/2000/svg">
<g clip-path="url(#clip0_42_6)" filter="url(#filter0_d_42_6)">
<path fill-rule="evenodd" clip-rule="evenodd" d="M14 20C8.47754 20 4 15.5225 4 10C4 4.47754 8.47754 0 14 0C19.5225 0 24 4.47754 24 10C24 15.5225 19.5225 20 14 20ZM14 2.5C9.85816 2.5 6.5 5.85816 6.5 10C6.5 14.1418 9.85816 17.5 14 17.5C18.1418 17.5 21.5 14.1418 21.5 10C21.5 5.85816 18.1418 2.5 14 2.5ZM14 15C13.0111 15 12.0444 14.7068 11.2221 14.1573C10.3999 13.6079 9.75904 12.827 9.3806 11.9134C9.00216 10.9998 8.90315 9.99445 9.09607 9.02455C9.289 8.05464 9.7652 7.16373 10.4645 6.46447C11.1637 5.7652 12.0546 5.289 13.0245 5.09607C13.9945 4.90315 14.9998 5.00216 15.9134 5.3806C16.827 5.75904 17.6079 6.3999 18.1573 7.22215C18.7068 8.04439 19 9.01109 19 10C18.9999 11.3261 18.4731 12.5978 17.5355 13.5355C16.5978 14.4731 15.3261 14.9999 14 15Z" fill="#0088FF"/>
</g>
<defs>
<filter id="filter0_d_42_6" x="0" y="0" width="28" height="28" filterUnits="userSpaceOnUse" color-interpolation-filters="sRGB">
<feFlood flood-opacity="0" result="BackgroundImageFix"/>
<feColorMatrix in="SourceAlpha" type="matrix" values="0 0 0 0 0 0 0 0 0 0 0 0 0 0 0 0 0 0 127 0" result="hardAlpha"/>
<feOffset dy="4"/>
<feGaussianBlur stdDeviation="2"/>
<feComposite in2="hardAlpha" operator="out"/>
<feColorMatrix type="matrix" values="0 0 0 0 0 0 0 0 0 0 0 0 0 0 0 0 0 0 0.25 0"/>
<feBlend mode="normal" in2="BackgroundImageFix" result="effect1_dropShadow_42_6"/>
<feBlend mode="normal" in="SourceGraphic" in2="effect1_dropShadow_42_6" result="shape"/>
</filter>
<clipPath id="clip0_42_6">
<rect width="20" height="20" fill="white" transform="translate(4)"/>
</clipPath>
</defs>
</svg>
